PathFileType	4	(X/Y/Z)	OpenSim_Sub06_CSBaseline_Accel.trc
DataRate	CameraRate	NumFrames	NumMarkers	Units	OrigDataRate	OrigDataStartFrame	OrigNumFrames
100	100	34	8	m	100	7431	8492
Frame#	Time	torso_imu_offset_imu	pelvis_imu_offset_imu	tibia_r_imu_offset_imu	femur_r_imu_offset_imu	tibia_l_imu_offset_imu	femur_l_imu_offset_imu	toes_r_imu_offset_imu	toes_l_imu_offset_imu
				X1	Y1	Z1	X2	Y2	Z2	X3	Y3	Z3	X4	Y4	Z4	X5	Y5	Z5	X6	Y6	Z6	X7	Y7	Z7	X8		Y8	Z8	

7431	74.30000000	8.45994098	-0.41974054	5.49844152	7.26984437	1.89562138	4.90570402	9.10476910	4.46079288	0.80845747	8.58619336	-0.51607250	-0.05551380	1.54188430	-4.18231828	5.83644489	8.25412109	3.99534304	2.77382515	4.94344224	-2.36972634	8.25226478	2.12225865	-0.17912723	9.43051145
7432	74.31000000	8.42099957	-0.55921372	5.72698246	7.69061754	1.87188298	4.99876521	9.06831564	5.39933628	0.93796465	8.42907488	-0.77226630	-0.47551587	2.20388073	-3.13362121	4.58548058	8.43713171	4.14660425	2.65966725	4.77030723	-2.52966754	8.33134037	2.29078753	-0.30791107	9.55537790
7433	74.32000000	8.31717202	-0.72557041	5.73870399	8.05779776	1.76838794	4.99384350	8.85235402	5.41353982	0.90173088	8.39067231	-1.29523816	-0.93106608	3.78132150	-2.13137820	3.36661796	8.47875779	4.01280199	2.30652945	5.25347781	-2.35767324	8.20240078	2.46036343	0.20379528	9.69284758
7434	74.33000000	8.14430713	-0.75804879	5.73859039	8.18429052	1.64066992	4.99251894	8.59587364	4.63709718	0.78131969	8.62151348	-1.87181201	-1.45260817	3.55910189	-2.66573281	2.37013194	8.43888110	3.92056741	1.81231381	5.16490749	-2.47677985	8.15733384	2.98534242	-0.60209283	9.81128576
7435	74.34000000	8.00560986	-0.76765602	5.73673858	8.16494945	1.55878383	4.85343051	8.67553536	3.47924274	0.70445216	8.72511453	-2.10128825	-2.03453914	4.10297280	-4.77782492	1.02037155	8.32654672	3.49203601	1.19454212	5.16477144	-2.56964755	8.04594638	3.38963528	-1.20165939	10.20661027
7436	74.35000000	7.83971846	-0.74775492	5.69429810	8.11317661	1.55137400	4.73623113	9.02549831	2.20101002	0.61304146	8.58106810	-2.26164275	-2.30542724	5.32577825	-7.46250851	-0.08047003	8.08105335	2.65319576	0.24991765	5.12665046	-2.62452539	8.01487320	4.13693599	-1.79172545	11.06407983
7437	74.36000000	7.74303399	-0.73488765	5.68448754	7.94169873	1.49155161	4.72859280	9.42460528	0.87763832	0.55978622	8.41704965	-2.13945620	-2.02065235	7.06671861	-9.22100297	-0.20697932	8.04667607	2.42017350	0.25526709	4.96434009	-2.70902475	8.04142010	6.14140061	-2.29040803	12.59608438
7438	74.37000000	7.79768631	-0.77239010	5.69108049	7.90399700	1.57618363	4.65553885	9.69789537	-0.24250798	0.85942611	8.39491273	-1.95396007	-1.46426432	7.60363263	-9.13601386	0.44042616	7.54687613	1.31304171	-0.72021457	5.34651659	-2.14655311	8.03461383	8.49018496	-2.63935655	13.98860148
7439	74.38000000	7.96667448	-0.73488106	5.76158464	7.74901996	1.53058226	4.64277306	9.83109666	-0.94481784	0.97071643	8.43558930	-1.82832168	-0.80271146	7.19031691	-7.44307662	1.59760337	7.41571687	1.22976108	-0.65374387	4.99012682	-2.20494192	8.16790310	9.20589452	-2.43754363	14.00905278
7440	74.39000000	8.16916099	-0.70403110	5.85162481	7.83326886	1.71448899	4.50176143	10.01413705	-0.83204699	1.36233295	8.69269781	-1.63051735	-0.48604630	6.52406283	-5.27853181	2.91511230	7.06095672	0.98894571	-0.31225253	4.91661606	-2.24278037	8.41239358	9.23954357	-1.81907997	13.00104794
7441	74.40000000	8.46067581	-0.74300732	6.00010337	7.95088106	1.67060809	4.41991767	10.09177602	-0.02414099	1.41036084	9.10176428	-1.47480595	-0.38795415	5.84356475	-3.67463639	4.04931833	7.08928147	0.49156923	-0.30107119	4.84625218	-2.26301668	8.51786314	10.03745648	-0.70771134	12.29168957
7442	74.41000000	8.78730481	-0.70952797	6.13111698	8.26937001	1.77843156	4.36047385	10.21156192	1.01097864	1.25279534	9.64136578	-1.35724445	-0.57432885	6.27539231	-2.13632455	5.18872107	7.73318065	0.18473180	-0.71194027	4.87746994	-2.14833213	8.49349417	10.92069807	0.45339254	11.69606280
7443	74.42000000	8.82934577	-0.72562638	6.19171050	8.54512145	1.92840201	4.42304380	10.20445414	2.02480953	1.23991098	9.88234768	-1.29386327	-0.90064694	7.30687216	-0.99499010	5.56655351	8.12965127	0.10361603	-0.50100181	4.95995291	-2.05554328	8.62411303	11.36185108	1.49795755	11.14813735
7444	74.43000000	8.78643943	-0.75645512	6.23634936	8.72241763	2.03863558	4.44561475	10.16008973	2.89546003	1.15448291	9.69392709	-1.38860293	-1.26289146	8.66314380	-0.44871376	4.79447909	8.32560891	0.02683048	-0.85010020	4.90416535	-2.23685268	8.63727183	11.96647342	1.53514670	10.41519556
7445	74.44000000	8.83553499	-0.84712441	6.21369409	8.72357204	2.15444586	4.50551797	10.07041562	3.39191396	0.94089265	9.67365090	-1.30023182	-1.32993783	10.09412725	-0.56844166	3.10737870	8.44367073	0.78286551	-0.68012298	4.98132664	-2.22489481	8.51124249	13.00538789	0.96420374	9.90519348
7446	74.45000000	8.85784421	-0.88129675	6.17045279	8.42280191	2.05088214	4.50815792	9.90708126	3.36506562	0.84885610	9.34901184	-1.31721847	-1.27075384	11.34719481	-0.96063808	1.41428200	8.75339338	0.95238339	-0.86910735	4.85456732	-2.32881971	8.55292660	14.12681993	0.01017206	9.49412351
7447	74.46000000	8.95375030	-0.98844768	6.13675078	8.30130053	2.00980320	4.36182348	9.90614357	2.76796118	0.76398398	9.20899519	-1.19501996	-1.27964808	12.71032465	-2.17668772	0.69112985	8.78482058	1.90987671	-0.52366678	5.27086469	-2.40225516	8.33867143	15.35463861	-0.76457571	9.24377970
7448	74.47000000	9.05727398	-1.09392941	6.08182974	8.17339527	1.80673598	4.29331900	9.95268542	1.91133107	0.65634355	9.13712981	-1.14164894	-1.31533909	13.62262108	-3.74011754	0.56677435	8.77339900	3.03983047	-0.10708022	5.20352591	-2.41211730	8.19958332	16.38035930	-1.55616897	8.95347022
7449	74.48000000	9.17677630	-1.17037625	6.11550904	8.11461155	1.75090929	4.16592975	10.14042614	1.10261507	0.62467132	9.08656998	-1.23828068	-1.22052211	13.21146129	-4.60916423	0.62765030	8.84581995	4.04553814	-0.14001141	4.98760063	-2.51716033	8.32466302	17.70829909	-2.80350035	8.24027217
7450	74.49000000	9.20372767	-1.22949477	6.21283833	8.11271607	1.71073637	4.22175333	10.40123841	0.41318854	0.79304385	9.03563288	-1.52086406	-0.99068375	11.67236038	-4.59623279	1.08674674	8.74128252	5.15834371	0.12347661	5.05730308	-2.55463044	8.37420945	17.40339780	-3.85404385	6.92038509
7451	74.50000000	9.29791615	-1.16443579	6.20634061	8.27606735	1.83349072	4.23232432	10.49682775	-0.18969491	0.93266456	9.13162524	-1.97497169	-0.81997808	9.91587249	-4.35461184	1.74474121	8.66756562	6.86714317	0.56266759	4.90623552	-2.52894616	8.37293735	16.98717923	-4.53862540	5.32591710
7452	74.51000000	9.31238106	-1.14850452	6.24640212	8.33553946	1.77288250	4.18639783	10.57456275	-0.65419424	1.15221238	9.20294811	-2.05509002	-0.82415644	8.52702676	-4.31667583	2.30023789	8.53077857	8.23517325	0.83527533	5.08600793	-2.28568644	8.42562854	16.36205187	-5.05977025	3.61936647
7453	74.52000000	9.41433181	-1.19318612	6.40538345	8.33448619	1.74145446	4.13939730	10.51974781	-0.87981299	1.32604727	9.16158677	-2.74327060	-0.89528127	7.68758734	-4.01071116	2.91072454	8.21088165	9.61817484	1.34276078	4.84277988	-2.40765399	8.58841258	15.93077181	-5.96270111	2.23684681
7454	74.53000000	9.39887984	-1.23329365	6.46157617	8.46065933	1.70719198	4.05249307	10.41822905	-0.67374868	1.35221647	9.13629986	-2.75429740	-1.03601892	7.36363890	-3.15077279	3.06082847	7.76941205	9.92518238	1.58553736	4.78869896	-2.48970069	8.65658969	15.79164116	-7.25831794	1.02407765
7455	74.54000000	9.35903726	-1.21621478	6.53044608	8.56775108	1.71543209	3.93862530	10.27305093	-0.57865376	1.48272198	9.07980151	-2.88347454	-1.25056068	7.76170832	-1.60413397	2.49348468	7.59750655	9.22405627	1.57794447	4.55778390	-2.57039922	8.72008801	15.25945490	-7.95068225	0.04428677
7456	74.55000000	9.25283560	-1.18380325	6.53689257	8.70099519	1.65552753	3.80220323	10.24300203	-0.66231058	1.73699542	9.13394858	-2.93545705	-1.42319053	8.64808522	-0.15855390	1.49269228	7.53211898	8.52097042	0.87903316	4.74169803	-2.38785475	8.65827724	14.61191714	-6.80369228	-0.07171147
7457	74.56000000	9.20845230	-1.09973708	6.60439882	9.14835468	1.83955374	3.63537553	10.32101219	-0.59757360	1.76771504	9.13141721	-3.11911332	-1.55797677	9.45432232	0.45275659	0.74799905	7.24440541	7.21664803	1.05044964	4.85867730	-2.40112223	8.61067740	14.18901885	-5.66720518	-0.51644061
7458	74.57000000	9.16058381	-1.11947275	6.53375123	9.08774558	1.63352090	3.72614503	10.32744642	-0.48820228	1.82492957	9.09963406	-2.95274752	-1.57265920	9.77487995	0.20938597	0.93501509	7.18529650	5.70711935	0.62149580	4.96158478	-2.15145546	8.72676852	12.39197866	8.12749713	-0.19701806
7459	74.58000000	9.27754771	-1.11865142	6.64669985	9.39709696	1.74218889	3.86252324	10.31825117	-0.31069454	1.78943545	9.12820362	-3.14373945	-1.29366748	11.07410248	0.59059386	1.15830230	7.24734530	4.68844282	-0.11709783	5.02210931	-2.11644684	8.99051533	9.66352170	-10.71316892	-4.19680143
7460	74.59000000	9.47591203	-1.17473506	6.70827737	9.50661680	1.53122411	4.09220781	10.44167772	-0.15204667	2.05650340	9.31506215	-3.22071528	-1.17156511	11.72750486	2.39279846	2.96493499	7.49080645	4.03236780	-0.46348120	5.18018789	-2.16911246	8.93874266	10.74721267	-8.84505378	13.25317111
7461	74.60000000	9.78533037	-1.20626487	6.74772792	9.53216097	1.31888383	4.71933057	10.45164546	-0.05384098	2.43908164	9.38480026	-3.27711866	-1.16096397	12.98524159	3.39078854	5.71754634	10.07716913	3.19894275	-1.94914377	5.43320193	-2.00878187	9.07274020	13.57817558	4.68734656	22.61939826
7462	74.61000000	10.54075150	-1.08639460	6.96222737	10.14878940	0.76232245	5.36677535	10.81827894	-0.13480152	2.17808577	9.69817003	-3.22020488	-1.05653277	13.71113998	4.24264887	7.24370076	12.78003836	4.11706139	-2.07774701	5.36701086	-2.17347840	9.47282546	6.14473270	-4.48590151	22.29178618
7463	74.62000000	11.42834521	-1.04461134	7.01767866	10.47574848	-0.19450429	6.05437784	11.53065476	-0.36473203	2.52685859	10.13828598	-3.16786484	-1.03903424	14.91008364	8.09931437	8.54803312	16.62314688	4.91386024	-1.49159792	5.07505952	-2.65934551	9.67471029	27.82405834	-8.67206495	11.59019970
7464	74.63000000	12.15172920	-0.72737336	7.44583114	10.71634671	-1.51030666	6.41593373	12.17506114	-0.48524744	3.09521737	10.67024184	-3.40469265	-1.01304996	15.80603092	10.99863552	11.56018685	17.66443129	5.02793245	-1.61995403	4.99904990	-2.86259796	9.98652145	-6.89161515	4.13753439	12.29799229
